# xmcd CD database file
#
# Track frame offsets:
#	150
#	10720
#	26970
#	41064
#	56323
#	68068
#	80542
#	93712
#	107776
#	123585
#	138444
#	153291
#	166436
#	181631
#	194982
#
# Disc length: 2808 seconds
#
# Revision: 0
# Processed by: cddbd v1.5.2PL0 Copyright (c) Steve Scherf et al.
# Submitted via: CDex 1.51
#
DISCID=cd0af60f
DTITLE=Die Stoakogler - Mir san koane Scheich
DYEAR=2009
DGENRE=Volkstümlich
TTITLE0=Mir san koane Scheich
TTITLE1=Mein Steirerland
TTITLE2=Natascha tanz ma boarisch
TTITLE3=Schön daß du da bist
TTITLE4=Man lebt nur einmal
TTITLE5=Das Lied vom Ablaufdatum
TTITLE6=Happy Polka
TTITLE7=Steiermark du bist mei Stolz
TTITLE8=Gestern das war gestern
TTITLE9=Wo ein Wille ist ist auch ein Weg
TTITLE10=Das ist so schön
TTITLE11=Mir is alles wurscht
TTITLE12=Almenland im Sommer
TTITLE13=Wo die anderen Urlaub machen
TTITLE14=Mein Steirerland Blasmusik-Version
EXTD=YEAR: 2009
EXTT0=
EXTT1=
EXTT2=
EXTT3=
EXTT4=
EXTT5=
EXTT6=
EXTT7=
EXTT8=
EXTT9=
EXTT10=
EXTT11=
EXTT12=
EXTT13=
EXTT14=
PLAYORDER=
